<svg width="48" height="48" viewBox="0 0 48 48" fill="none" xmlns="http://www.w3.org/2000/svg">
<path d="M7.97525 31.1712C7.23585 30.9774 6.4616 30.9576 5.71325 31.1132C5.24142 29.4499 5.00182 27.7292 5.00125 26.0002C5.00781 22.1301 6.19526 18.3541 8.40495 15.1768C10.6146 11.9995 13.7413 9.57224 17.3672 8.21924C17.1521 7.57342 17.0325 6.89964 17.0122 6.21924C12.9203 7.66634 9.37667 10.3447 6.86798 13.8865C4.35928 17.4284 3.00854 21.66 3.00125 26.0002C3.00297 27.9982 3.29365 29.9855 3.86425 31.9002C2.81358 32.635 2.08611 33.746 1.83276 35.0029C1.57942 36.2597 1.81965 37.5658 2.50362 38.6502C3.18759 39.7346 4.26278 40.5141 5.50613 40.8269C6.74948 41.1397 8.06553 40.9619 9.18125 40.3302C10.0374 39.8357 10.7277 39.0984 11.1649 38.2116C11.6021 37.3247 11.7666 36.3282 11.6375 35.3479C11.5085 34.3676 11.0916 33.4476 10.4398 32.7042C9.7879 31.9608 8.93025 31.4273 7.97525 31.1712Z" fill="#296647" stroke="white"/>
<path d="M46.1502 34.7062C45.9608 33.9748 45.6081 33.2957 45.1186 32.7202C44.6291 32.1446 44.0155 31.6874 43.3239 31.3831C42.6323 31.0787 41.8808 30.935 41.1257 30.9629C40.3706 30.9907 39.6317 31.1893 38.9644 31.5437C38.2971 31.8981 37.7188 32.3992 37.273 33.0092C36.8271 33.6193 36.5253 34.3224 36.3903 35.0658C36.2553 35.8092 36.2905 36.5736 36.4933 37.3015C36.6961 38.0293 37.0612 38.7018 37.5612 39.2682C34.2421 42.6807 29.7592 44.7175 25.0056 44.9728C20.2521 45.2282 15.5768 43.6834 11.9112 40.6462C11.4624 41.1522 10.9422 41.5902 10.3672 41.9462C14.4331 45.4465 19.6898 47.2484 25.048 46.9787C30.4063 46.7089 35.4554 44.3882 39.1492 40.4972C40.0102 40.9149 40.9731 41.0763 41.9233 40.9622C42.8734 40.8481 43.7708 40.4632 44.5084 39.8535C45.246 39.2438 45.7928 38.435 46.0837 37.5233C46.3746 36.6116 46.3974 35.6355 46.1492 34.7112L46.1502 34.7062Z" fill="#296647" stroke="white"/>
<path d="M28.9615 5.61711C28.8655 4.38246 28.3147 3.22738 27.4158 2.37557C26.5169 1.52376 25.3339 1.03584 24.0958 1.00631C22.8578 0.97677 21.6529 1.40772 20.7144 2.21569C19.7759 3.02366 19.1706 4.15116 19.0158 5.37983C18.861 6.60849 19.1676 7.85089 19.8764 8.86642C20.5851 9.88194 21.6455 10.5983 22.8521 10.8768C24.0588 11.1553 25.3259 10.9761 26.408 10.3739C27.4901 9.77169 28.3102 8.78935 28.7095 7.61711C33.3366 8.76719 37.3553 11.6294 39.9548 15.6262C42.5544 19.6231 43.5413 24.4571 42.7165 29.1531C43.3852 29.289 44.0304 29.5222 44.6315 29.8451C45.6373 24.5664 44.5701 19.1031 41.6517 14.5909C38.7334 10.0787 34.1884 6.86473 28.9615 5.61711Z" fill="#69B236" stroke="white"/>
</svg>
