<svg xmlns="http://www.w3.org/2000/svg" xmlns:xlink="http://www.w3.org/1999/xlink" x="0px" y="0px" width="48px" height="48px" viewBox="0 0 48 48"><g stroke-width="1" transform="translate(0.5, 0.5)"><polygon fill="none" stroke="#296647" stroke-width="1" stroke-linecap="square" stroke-miterlimit="10" points="32,26 32,16 16,26 
	10,16 2,16 2,46 46,46 46,16 " stroke-linejoin="miter"></polygon>
<rect data-color="color-2" x="34" y="34" fill="none" stroke="#69b236" stroke-width="1" stroke-linecap="square" stroke-miterlimit="10" width="6" height="6" stroke-linejoin="miter"></rect>
<rect data-color="color-2" x="22" y="34" fill="none" stroke="#69b236" stroke-width="1" stroke-linecap="square" stroke-miterlimit="10" width="6" height="6" stroke-linejoin="miter"></rect>
<path data-color="color-2" fill="none" stroke="#69b236" stroke-width="1" stroke-linecap="square" stroke-miterlimit="10" d="M28,10
	c0-3.3-2.7-6-6-6c-2,0-3.8,1-4.9,2.5C15.8,3.8,13.1,2,10,2c-4.4,0-8,3.6-8,8L28,10C28,10,28,10,28,10z" stroke-linejoin="miter"></path></g></svg>