<svg width="42" height="42" viewBox="0 0 42 42" fill="none" xmlns="http://www.w3.org/2000/svg">
<path d="M14.4375 27.5625L27.5625 14.4375" stroke="#296647" stroke-miterlimit="10" stroke-linecap="square"/>
<path d="M15.75 18.375C17.1997 18.375 18.375 17.1997 18.375 15.75C18.375 14.3003 17.1997 13.125 15.75 13.125C14.3003 13.125 13.125 14.3003 13.125 15.75C13.125 17.1997 14.3003 18.375 15.75 18.375Z" stroke="#296647" stroke-miterlimit="10" stroke-linecap="square"/>
<path d="M26.25 28.875C27.6997 28.875 28.875 27.6997 28.875 26.25C28.875 24.8003 27.6997 23.625 26.25 23.625C24.8003 23.625 23.625 24.8003 23.625 26.25C23.625 27.6997 24.8003 28.875 26.25 28.875Z" stroke="#296647" stroke-miterlimit="10" stroke-linecap="square"/>
<path d="M35.4375 27.5625L40.6875 21L35.4375 14.4375V6.5625H27.5625L21 1.3125L14.4375 6.5625H6.5625V14.4375L1.3125 21L6.5625 27.5625V35.4375H14.4375L21 40.6875L27.5625 35.4375H35.4375V27.5625Z" stroke="#296647" stroke-miterlimit="10" stroke-linecap="square"/>
</svg>
