<svg xmlns="http://www.w3.org/2000/svg" xmlns:xlink="http://www.w3.org/1999/xlink" x="0px" y="0px" width="48px" height="48px" viewBox="0 0 48 48"><g stroke-width="1" transform="translate(0.5, 0.5)"><path d="M14,24C14,14,24,3,24,3S34,14,34,24c0,8-4.477,12-10,12S14,32,14,24Z" fill="none" stroke="#296647" stroke-linecap="square" stroke-miterlimit="10" stroke-width="1" stroke-linejoin="miter"></path>
  <path d="M36,10.4a43.653,43.653,0,0,1,5.231-3.577S48.1,19.182,45.351,28.8C43.508,35.25,39.408,38.13,35,37.995" fill="none" stroke="#69b236" stroke-linecap="square" stroke-miterlimit="10" stroke-width="1" data-color="color-2" stroke-linejoin="miter"></path>
  <path d="M12,10.4A43.653,43.653,0,0,0,6.769,6.819S-.1,19.182,2.649,28.8C4.492,35.25,8.592,38.13,13,37.995" fill="none" stroke="#69b236" stroke-linecap="square" stroke-miterlimit="10" stroke-width="1" data-color="color-2" stroke-linejoin="miter"></path>
  <line x1="24" y1="46" x2="24" y2="23" fill="none" stroke="#296647" stroke-linecap="square" stroke-miterlimit="10" stroke-width="1" stroke-linejoin="miter"></line></g></svg>