<svg width="48" height="48" viewBox="0 0 48 48" fill="none" xmlns="http://www.w3.org/2000/svg">
<path d="M11.389 5.97119C12.4561 6.99409 13.2924 8.23305 13.842 9.60519C14.5246 10.0871 15.0676 10.7408 15.416 11.5002C15.6264 12.3214 15.6336 13.1815 15.437 14.0062C15.437 14.0062 16.499 17.1252 15.999 18.0002C15.499 18.8752 13.374 19.4382 13.374 19.4382C13.0855 19.9305 12.6974 20.3571 12.2346 20.6909C11.7717 21.0246 11.2443 21.258 10.686 21.3762C10.0245 21.4129 9.40409 21.709 8.95947 22.2003C8.51485 22.6915 8.28185 23.3383 8.31104 24.0002C8.31104 25.6882 9.99904 28.4382 9.99904 28.4382C9.99904 28.4382 11.749 29.2942 11.999 29.9192C12.1874 30.5983 12.2997 31.2963 12.334 32.0002C12.334 32.0002 13.999 34.9382 13.061 36.6252C12.761 37.1632 11.373 37.5632 11.373 37.5632L9.42604 40.4832" stroke="#296647" stroke-miterlimit="10"/>
<path d="M41.3626 10.4873C39.4744 11.2758 37.5219 11.9004 35.5266 12.3543C35.5266 12.3543 32.8136 15.3743 31.0266 15.1243C29.2396 14.8743 27.4326 12.8743 27.4326 12.8743C27.4326 12.8743 27.5626 9.18831 27.0006 9.00031C26.4386 8.81231 24.9386 9.81231 24.0006 9.06231C23.0626 8.31231 23.6006 6.20031 23.6006 6.20031C23.6006 6.20031 21.5596 5.56431 21.3096 4.87631C21.0596 4.18831 22.0526 2.65731 22.2416 2.07031" stroke="#296647" stroke-miterlimit="10"/>
<path d="M44.0005 14.8361C42.4661 11.4761 40.1106 8.5566 37.1509 6.34667C34.1913 4.13673 30.7229 2.70754 27.0655 2.19089C23.4082 1.67424 19.6796 2.08676 16.2236 3.3904C12.7676 4.69405 9.69552 6.84685 7.29055 9.65031C4.88558 12.4538 3.22517 15.8176 2.46244 19.4317C1.69971 23.0458 1.85921 26.7937 2.92622 30.3299C3.99324 33.8661 5.93342 37.0767 8.56787 39.6657C11.2023 42.2547 14.4462 44.1388 18.0005 45.1441" stroke="#296647" stroke-miterlimit="10" stroke-linecap="square"/>
<path d="M39.321 31.1611C28.934 34.8711 31.9 46.0001 23 46.0001" stroke="#69B236" stroke-miterlimit="10" stroke-linecap="square"/>
<path d="M30.258 20.523C29.7297 20.2046 29.168 19.9454 28.583 19.75C27.4879 19.7924 26.4059 20.0032 25.375 20.375C25.375 20.375 22.375 24 22.375 25.375C22.3959 25.5701 22.4738 25.7548 22.599 25.906" stroke="#296647" stroke-miterlimit="10" stroke-linecap="square"/>
<path d="M46 19.9731C44.6076 21.8432 42.7975 23.362 40.7141 24.4084C38.6306 25.4548 36.3315 25.9999 34 26.0001C31.8783 26.0001 29.8434 26.843 28.3431 28.3433C26.8429 29.8436 26 31.8784 26 34.0001C26 36.1219 26.8429 38.1567 28.3431 39.657C29.8434 41.1573 31.8783 42.0001 34 42.0001C37.1826 42.0001 40.2348 40.7359 42.4853 38.4854C44.7357 36.235 46 33.1827 46 30.0001V19.9731Z" stroke="#69B236" stroke-miterlimit="10" stroke-linecap="square"/>
</svg>
